<?xml version="1.0" encoding="UTF-8" standalone="no"?>
<!-- Created with Inkscape (http://www.inkscape.org/) -->

<svg
   width="210mm"
   height="297mm"
   viewBox="0 0 210 297"
   version="1.1"
   id="svg1"
   sodipodi:docname="encolsure_acrylic.svg"
   inkscape:version="1.3.2 (091e20e, 2023-11-25, custom)"
   xmlns:inkscape="http://www.inkscape.org/namespaces/inkscape"
   xmlns:sodipodi="http://sodipodi.sourceforge.net/DTD/sodipodi-0.dtd"
   xmlns="http://www.w3.org/2000/svg"
   xmlns:svg="http://www.w3.org/2000/svg">
  <sodipodi:namedview
     id="namedview1"
     pagecolor="#ffffff"
     bordercolor="#666666"
     borderopacity="1.0"
     inkscape:showpageshadow="2"
     inkscape:pageopacity="0.0"
     inkscape:pagecheckerboard="0"
     inkscape:deskcolor="#d1d1d1"
     inkscape:document-units="mm"
     inkscape:zoom="1.4627806"
     inkscape:cx="396.16331"
     inkscape:cy="813.17731"
     inkscape:window-width="1920"
     inkscape:window-height="1017"
     inkscape:window-x="-8"
     inkscape:window-y="-8"
     inkscape:window-maximized="1"
     inkscape:current-layer="svg1" />
  <defs
     id="defs1" />
  <g
     inkscape:label="Layer 1"
     inkscape:groupmode="layer"
     id="layer1" />
  <g
     transform="translate(0, 297)"
     id="g2537">design<g
   transform="translate(8, -8)"
   id="g2536">
  <g
     id="g2461">
    <path
       style="fill:none;stroke:#0000FF;stroke-width:0.01"
       d="M 0 -0 l 0 -12.375 l 3 -0 l 0 -5 l -3 0 l 0 -12.375 l 3 -0 l 0 -5 l -3 0 l 0 -12.375 l 3 -0 l 0 -5 l -3 0 l 0 -12.375 l 13.358 -0 l 0 3 l 5 -0 l -0 -3 l 13.358 -0 l 0 3 l 5 -0 l -0 -3 l 13.358 -0 l 0 3 l 5 -0 l -0 -3 l 13.358 -0 l 0 12.375 l -3 -0 l 0 5 l 3 0 l 0 12.375 l -3 -0 l 0 5 l 3 0 l 0 12.375 l -3 -0 l 0 5 l 3 0 l 0 12.375 z"
       id="path2458" />
    <path
       style="fill:none;stroke:#FF0000;stroke-width:0.01"
       d="M 34.215 -54.5 v 44.5 M 34.215 -10 A 5 5 0 1 0 42.751 -13.536"
       id="path2459" />
    <path
       style="fill:none;stroke:#FF0000;stroke-width:0.01"
       d="M 39.215 -59.5 v 39.5 M 39.215 -20 A 5 5 0 1 0 47.751 -23.536"
       id="path2460" />
    <path
       style="fill:none;stroke:#FF0000;stroke-width:0.01"
       d="M 29.215 -57.5 v 29.5 M 29.215 -28 A 5 5 0 1 1 20.679 -31.536"
       id="path2461" />
  </g>
  <g
     transform="translate(71.43, 0)"
     id="g2486">
    <path
       style="fill:none;stroke:#0000FF;stroke-width:0.01"
       d="M 3 -0 l 0 -12.375 l -3 -0 l 0 -5 l 3 0 l 0 -12.375 l -3 -0 l 0 -5 l 3 0 l 0 -12.375 l -3 -0 l 0 -5 l 3 0 l 0 -12.375 l 7.73 -0 l 0 3 l 5 -0 l -0 -3 l 7.73 -0 l 0 3 l 5 -0 l -0 -3 l 7.73 -0 l 0 3 l 5 -0 l -0 -3 l 7.73 -0 l 0 12.375 l 3 -0 l 0 5 l -3 0 l 0 12.375 l 3 -0 l 0 5 l -3 0 l 0 12.375 l 3 -0 l 0 5 l -3 0 l 0 12.375 l -45.92 -0"
       id="path2462" />
    <circle
       style="fill:none;stroke:#FF0000;stroke-width:0.01"
       r="7.0"
       cx="25.96"
       cy="-32.25"
       id="circle2462" />
    <path
       style="fill:none;stroke:#FF0000;stroke-width:0.01"
       d="M 25.96 -32.25 m 0 -10.5 l 0 -10.71"
       id="path2463" />
    <path
       style="fill:none;stroke:#FF0000;stroke-width:0.01"
       d="M 25.96 -32.25 m 2.2 -8.21 l 2.772 -10.345"
       id="path2464" />
    <path
       style="fill:none;stroke:#FF0000;stroke-width:0.01"
       d="M 25.96 -32.25 m 5.25 -9.093 l 5.355 -9.275"
       id="path2465" />
    <path
       style="fill:none;stroke:#FF0000;stroke-width:0.01"
       d="M 25.96 -32.25 m 6.01 -6.01 l 7.573 -7.573"
       id="path2466" />
    <path
       style="fill:none;stroke:#FF0000;stroke-width:0.01"
       d="M 25.96 -32.25 m 9.093 -5.25 l 9.275 -5.355"
       id="path2467" />
    <path
       style="fill:none;stroke:#FF0000;stroke-width:0.01"
       d="M 25.96 -32.25 m 8.21 -2.2 l 10.345 -2.772"
       id="path2468" />
    <path
       style="fill:none;stroke:#FF0000;stroke-width:0.01"
       d="M 25.96 -32.25 m 10.5 -0 l 10.71 -0"
       id="path2469" />
    <path
       style="fill:none;stroke:#FF0000;stroke-width:0.01"
       d="M 25.96 -32.25 m 8.21 2.2 l 10.345 2.772"
       id="path2470" />
    <path
       style="fill:none;stroke:#FF0000;stroke-width:0.01"
       d="M 25.96 -32.25 m 9.093 5.25 l 9.275 5.355"
       id="path2471" />
    <path
       style="fill:none;stroke:#FF0000;stroke-width:0.01"
       d="M 25.96 -32.25 m 6.01 6.01 l 7.573 7.573"
       id="path2472" />
    <path
       style="fill:none;stroke:#FF0000;stroke-width:0.01"
       d="M 25.96 -32.25 m 5.25 9.093 l 5.355 9.275"
       id="path2473" />
    <path
       style="fill:none;stroke:#FF0000;stroke-width:0.01"
       d="M 25.96 -32.25 m 2.2 8.21 l 2.772 10.345"
       id="path2474" />
    <path
       style="fill:none;stroke:#FF0000;stroke-width:0.01"
       d="M 25.96 -32.25 m 0 10.5 l 0 10.71"
       id="path2475" />
    <path
       style="fill:none;stroke:#FF0000;stroke-width:0.01"
       d="M 25.96 -32.25 m -2.2 8.21 l -2.772 10.345"
       id="path2476" />
    <path
       style="fill:none;stroke:#FF0000;stroke-width:0.01"
       d="M 25.96 -32.25 m -5.25 9.093 l -5.355 9.275"
       id="path2477" />
    <path
       style="fill:none;stroke:#FF0000;stroke-width:0.01"
       d="M 25.96 -32.25 m -6.01 6.01 l -7.573 7.573"
       id="path2478" />
    <path
       style="fill:none;stroke:#FF0000;stroke-width:0.01"
       d="M 25.96 -32.25 m -9.093 5.25 l -9.275 5.355"
       id="path2479" />
    <path
       style="fill:none;stroke:#FF0000;stroke-width:0.01"
       d="M 25.96 -32.25 m -8.21 2.2 l -10.345 2.772"
       id="path2480" />
    <path
       style="fill:none;stroke:#FF0000;stroke-width:0.01"
       d="M 25.96 -32.25 m -10.5 0 l -10.71 0"
       id="path2481" />
    <path
       style="fill:none;stroke:#FF0000;stroke-width:0.01"
       d="M 25.96 -32.25 m -8.21 -2.2 l -10.345 -2.772"
       id="path2482" />
    <path
       style="fill:none;stroke:#FF0000;stroke-width:0.01"
       d="M 25.96 -32.25 m -9.093 -5.25 l -9.275 -5.355"
       id="path2483" />
    <path
       style="fill:none;stroke:#FF0000;stroke-width:0.01"
       d="M 25.96 -32.25 m -6.01 -6.01 l -7.573 -7.573"
       id="path2484" />
    <path
       style="fill:none;stroke:#FF0000;stroke-width:0.01"
       d="M 25.96 -32.25 m -5.25 -9.093 l -5.355 -9.275"
       id="path2485" />
    <path
       style="fill:none;stroke:#FF0000;stroke-width:0.01"
       d="M 25.96 -32.25 m -2.2 -8.21 l -2.772 -10.345"
       id="path2486" />
  </g>
  <g
     transform="translate(126.35, 0)"
     id="g2497">
    <path
       style="fill:none;stroke:#0000FF;stroke-width:0.01"
       d="M 0 -0 l 0 -12.375 l 3 -0 l 0 -5 l -3 0 l 0 -12.375 l 3 -0 l 0 -5 l -3 0 l 0 -12.375 l 3 -0 l 0 -5 l -3 0 l 0 -12.375 l 13.358 -0 l 0 3 l 5 -0 l -0 -3 l 13.358 -0 l 0 3 l 5 -0 l -0 -3 l 13.358 -0 l 0 3 l 5 -0 l -0 -3 l 13.358 -0 l 0 12.375 l -3 -0 l 0 5 l 3 0 l 0 12.375 l -3 -0 l 0 5 l 3 0 l 0 12.375 l -3 -0 l 0 5 l 3 0 l 0 12.375 z"
       id="path2487" />
    <g
       transform="matrix(6.12303e-17 -1 1 6.12303e-17 72.555 0)"
       id="g2496">
      <path
         style="fill:none;stroke:#FF0000;stroke-width:0.01"
         d="M 21.938 -34.215 A 8.25 8.25 0 1 1 28.257 -47.768"
         id="path2488" />
      <path
         style="fill:none;stroke:#FF0000;stroke-width:0.01"
         d="M 38.235 -43.496 A 6.188 6.188 0 1 1 43.594 -34.215"
         id="path2489" />
      <path
         style="fill:none;stroke:#FF0000;stroke-width:0.01"
         d="M 20.541 -50.596 A 12.375 12.375 0 0 1 44.625 -46.504"
         id="path2490" />
      <path
         style="fill:none;stroke:#FF0000;stroke-width:0.01"
         d="M 21.938 -34.215 l 21.656 -0"
         id="path2491" />
      <path
         style="fill:none;stroke:#FF0000;stroke-width:0.01"
         d="M 24 -32.153 l -2.062 10.312"
         id="path2492" />
      <path
         style="fill:none;stroke:#FF0000;stroke-width:0.01"
         d="M 28.125 -32.153 l -2.062 10.312"
         id="path2493" />
      <path
         style="fill:none;stroke:#FF0000;stroke-width:0.01"
         d="M 32.25 -32.153 l -2.062 10.312"
         id="path2494" />
      <path
         style="fill:none;stroke:#FF0000;stroke-width:0.01"
         d="M 36.375 -32.153 l -2.062 10.312"
         id="path2495" />
      <path
         style="fill:none;stroke:#FF0000;stroke-width:0.01"
         d="M 40.5 -32.153 l -2.062 10.312"
         id="path2496" />
    </g>
  </g>
  <g
     transform="translate(71.43, -67.5)"
     id="g2509">
    <path
       style="fill:none;stroke:#0000FF;stroke-width:0.01"
       d="M 3 -3 l 0 -10.358 l -3 -0 l 0 -5 l 3 0 l 0 -13.358 l -3 -0 l 0 -5 l 3 0 l 0 -13.358 l -3 -0 l 0 -5 l 3 0 l 0 -10.358 l 7.73 -0 l 0 -3 l 5 -0 l -0 3 l 7.73 -0 l 0 -3 l 5 -0 l -0 3 l 7.73 -0 l 0 -3 l 5 -0 l -0 3 l 7.73 -0 l 0 10.358 l 3 -0 l 0 5 l -3 0 l 0 13.358 l 3 -0 l 0 5 l -3 0 l 0 13.358 l 3 -0 l 0 5 l -3 0 l 0 10.358 l -7.73 -0 l 0 3 l -5 -0 l -0 -3 l -7.73 -0 l 0 3 l -5 -0 l -0 -3 l -7.73 -0 l 0 3 l -5 -0 l -0 -3 l -7.73 -0"
       id="path2497" />
    <g
       transform="translate(18.835, -6)"
       id="g2498">
      <path
         style="fill:none;stroke:#0000FF;stroke-width:0.01"
         d="M 0 -0 h 14.25 v -2 h -2.625 v -3 h -9 v 3 h -2.625 z"
         id="path2498" />
    </g>
    <g
       transform="translate(3, -3)"
       id="g2500">
      <g
         transform="translate(6.46, -3.75)"
         id="g2499" />
    </g>
    <g
       transform="translate(3, -3)"
       id="g2501" />
    <g
       transform="translate(3, -6)"
       id="g2504">
      <circle
         style="fill:none;stroke:#0000FF;stroke-width:0.01"
         r="2.0"
         cx="5.0"
         cy="-28.215"
         id="circle2501" />
      <circle
         style="fill:none;stroke:#0000FF;stroke-width:0.01"
         r="2.0"
         cx="40.92"
         cy="-28.215"
         id="circle2502" />
      <path
         style="fill:none;stroke:#FF0000;stroke-width:0.01"
         d="M 5 -19.215 L 5 -24.465 l 0.949 2.846 M 5 -24.465 l -0.949 2.846 M 5 -24.465"
         id="path2502" />
      <path
         style="fill:none;stroke:#FF0000;stroke-width:0.01"
         d="M 40.92 -19.215 L 40.92 -24.465 l 0.949 2.846 M 40.92 -24.465 l -0.949 2.846 M 40.92 -24.465"
         id="path2503" />
      <path
         style="fill:none;stroke:#0000FF;stroke-width:0.01"
         d="M 26.46 -52.68 a 1 1 0 0 0 1 -1 v -0.5 a 1 1 0 0 0 -1 -1 h -7 a 1 1 0 0 0 -1 1 v 0.5 a 1 1 0 0 0 1 1 z"
         id="path2504" />
    </g>
    <g
       transform="translate(13.26, -21.515)"
       id="g2506">
      <path
         style="fill:none;stroke:#0000FF;stroke-width:0.01"
         d="M 6.89 6.65 h 12 v -15 h -12 z"
         id="path2505" />
      <circle
         style="fill:none;stroke:#0000FF;stroke-width:0.01"
         r="1.0"
         cx="5.090000000000001"
         cy="-0.8499999999999996"
         id="circle2505" />
      <circle
         style="fill:none;stroke:#0000FF;stroke-width:0.01"
         r="1.0"
         cx="20.69"
         cy="-0.8499999999999996"
         id="circle2506" />
    </g>
    <path
       style="fill:none;stroke:#FF0000;stroke-width:0.01"
       d="M 5.21 -57.43 L 5.21 -55.18 M 6.71 -57.43 L 6.71 -55.18 M 5.96 -57.43 L 5.96 -54.43 M 6.71 -55.18 M 6.71 -55.18 A 0.75 0.75 0 0 1 5.96 -54.43 M 5.96 -54.43 M 5.96 -54.43 A 0.75 0.75 0 0 1 5.21 -55.18 M 7.71 -55.18 L 9.21 -55.18 M 8.46 -54.43 L 9.21 -54.43 M 8.46 -55.93 M 8.46 -55.93 A 0.75 0.75 0 0 1 9.21 -55.18 M 8.46 -54.43 M 8.46 -54.43 A 0.75 0.75 0 0 1 7.71 -55.18 M 7.71 -55.18 M 7.71 -55.18 A 0.75 0.75 0 0 1 8.46 -55.93 M 11.71 -55.93 L 11.71 -54.43 M 10.96 -55.93 M 10.96 -55.93 A 0.75 0.75 0 0 1 11.71 -55.18 M 11.71 -55.18 M 11.71 -55.18 A 0.75 0.75 0 0 1 10.96 -54.43 M 10.96 -54.43 M 10.96 -54.43 A 0.75 0.75 0 0 1 10.21 -55.18 M 10.21 -55.18 M 10.21 -55.18 A 0.75 0.75 0 0 1 10.96 -55.93 M 13.46 -57.43 L 13.46 -54.43 M 12.71 -55.93 L 14.21 -55.93 M 15.21 -57.43 L 15.21 -54.43 M 16.71 -55.43 L 16.71 -54.43 M 15.96 -56.18 M 15.96 -56.18 A 0.75 0.75 0 0 1 16.71 -55.43 M 15.21 -55.43 M 15.21 -55.43 A 0.75 0.75 0 0 1 15.96 -56.18 M 17.71 -55.18 L 19.21 -55.18 M 18.46 -54.43 L 19.21 -54.43 M 18.46 -55.93 M 18.46 -55.93 A 0.75 0.75 0 0 1 19.21 -55.18 M 18.46 -54.43 M 18.46 -54.43 A 0.75 0.75 0 0 1 17.71 -55.18 M 17.71 -55.18 M 17.71 -55.18 A 0.75 0.75 0 0 1 18.46 -55.93 M 20.21 -55.93 L 20.21 -54.43 M 20.96 -55.93 M 20.96 -55.93 A 0.75 0.75 0 0 1 21.71 -55.18 M 20.21 -55.18 M 20.21 -55.18 A 0.75 0.75 0 0 1 20.96 -55.93 M 23.46 -57.43 M 23.46 -57.43 A 0.75 0.75 0 0 1 24.21 -56.68 M 23.46 -55.93 M 23.46 -55.93 A 0.75 0.75 0 0 1 22.71 -56.68 M 22.71 -56.68 M 22.71 -56.68 A 0.75 0.75 0 0 1 23.46 -57.43 M 23.46 -55.93 M 23.46 -55.93 A 0.75 0.75 0 0 1 24.21 -55.18 M 24.21 -55.18 M 24.21 -55.18 A 0.75 0.75 0 0 1 23.46 -54.43 M 23.46 -54.43 M 23.46 -54.43 A 0.75 0.75 0 0 1 22.71 -55.18 M 25.96 -57.43 L 25.96 -54.43 M 25.21 -55.93 L 26.71 -55.93 M 29.21 -55.93 L 29.21 -54.43 M 28.46 -55.93 M 28.46 -55.93 A 0.75 0.75 0 0 1 29.21 -55.18 M 29.21 -55.18 M 29.21 -55.18 A 0.75 0.75 0 0 1 28.46 -54.43 M 28.46 -54.43 M 28.46 -54.43 A 0.75 0.75 0 0 1 27.71 -55.18 M 27.71 -55.18 M 27.71 -55.18 A 0.75 0.75 0 0 1 28.46 -55.93 M 30.96 -57.43 L 30.96 -54.43 M 30.21 -55.93 L 31.71 -55.93 M 33.46 -56.93 L 33.46 -56.68 M 33.46 -55.93 L 33.46 -54.43 M 35.96 -55.93 M 35.96 -55.93 A 0.75 0.75 0 0 1 36.71 -55.18 M 36.71 -55.18 M 36.71 -55.18 A 0.75 0.75 0 0 1 35.96 -54.43 M 35.96 -54.43 M 35.96 -54.43 A 0.75 0.75 0 0 1 35.21 -55.18 M 35.21 -55.18 M 35.21 -55.18 A 0.75 0.75 0 0 1 35.96 -55.93 M 37.71 -55.93 L 37.71 -54.43 M 39.21 -55.18 L 39.21 -54.43 M 38.46 -55.93 M 38.46 -55.93 A 0.75 0.75 0 0 1 39.21 -55.18 M 37.71 -55.18 M 37.71 -55.18 A 0.75 0.75 0 0 1 38.46 -55.93 M 40.21 -55.18 L 41.71 -55.18 M 40.96 -54.43 L 41.71 -54.43 M 40.96 -55.93 M 40.96 -55.93 A 0.75 0.75 0 0 1 41.71 -55.18 M 40.96 -54.43 M 40.96 -54.43 A 0.75 0.75 0 0 1 40.21 -55.18 M 40.21 -55.18 M 40.21 -55.18 A 0.75 0.75 0 0 1 40.96 -55.93 M 42.71 -55.93 L 42.71 -54.43 M 43.46 -55.93 M 43.46 -55.93 A 0.75 0.75 0 0 1 44.21 -55.18 M 42.71 -55.18 M 42.71 -55.18 A 0.75 0.75 0 0 1 43.46 -55.93 M 46.71 -55.93 L 46.71 -53.93 M 45.21 -55.18 L 45.21 -55.93 M 46.71 -55.18 M 46.71 -55.18 A 0.75 0.75 0 0 1 45.96 -54.43 M 45.96 -54.43 M 45.96 -54.43 A 0.75 0.75 0 0 1 45.21 -55.18 M 46.71 -53.93 M 46.71 -53.93 A 0.75 0.75 0 0 1 45.96 -53.18 M 45.96 -53.18 M 45.96 -53.18 A 0.75 0.75 0 0 1 45.21 -53.93"
       id="path2506" />
    <path
       style="fill:none;stroke:#FF0000;stroke-width:0.01"
       d="M 4.5 -9 L 4.5 -6 M 6 -8.25 L 6 -6 M 5.25 -9 L 5.25 -6 M 5.25 -9 M 5.25 -9 A 0.75 0.75 0 0 1 6 -8.25 M 4.5 -8.25 M 4.5 -8.25 A 0.75 0.75 0 0 1 5.25 -9 M 8 -9 L 6.5 -9 M 6.5 -9 L 6.5 -6 M 6.5 -6 L 8 -6 M 6.5 -7.5 L 8 -7.5 M 8.5 -9 L 8.5 -6.75 M 10 -9 L 10 -6.75 M 9.25 -9 L 9.25 -6 M 10 -6.75 M 10 -6.75 A 0.75 0.75 0 0 1 9.25 -6 M 9.25 -6 M 9.25 -6 A 0.75 0.75 0 0 1 8.5 -6.75"
       id="path2507" />
    <path
       style="fill:none;stroke:#FF0000;stroke-width:0.01"
       d="M 37.92 -9 L 37.92 -6 M 39.42 -8.25 L 39.42 -6 M 38.67 -9 L 38.67 -6 M 38.67 -9 M 38.67 -9 A 0.75 0.75 0 0 1 39.42 -8.25 M 37.92 -8.25 M 37.92 -8.25 A 0.75 0.75 0 0 1 38.67 -9 M 39.92 -9 L 39.92 -6 M 41.42 -8.25 L 41.42 -6 M 40.67 -9 L 40.67 -6 M 40.67 -9 M 40.67 -9 A 0.75 0.75 0 0 1 41.42 -8.25 M 39.92 -8.25 M 39.92 -8.25 A 0.75 0.75 0 0 1 40.67 -9 M 41.92 -9 L 43.42 -6 M 41.92 -6 L 43.42 -9 M 43.92 -9 L 45.42 -6 M 43.92 -6 L 45.42 -9 M 45.92 -9 L 46.67 -6 M 46.67 -6 L 47.42 -9"
       id="path2508" />
    <path
       style="fill:none;stroke:#FF0000;stroke-width:0.01"
       d="M 24.21 -51.43 L 23.21 -49.93 M 23.21 -49.93 L 24.71 -49.93 M 24.21 -51.43 L 24.21 -48.43 M 25.21 -51.43 L 25.21 -48.43 M 26.71 -51.43 L 25.21 -49.93 M 25.21 -49.93 L 26.71 -48.43 M 27.21 -50.68 L 27.21 -49.18 M 28.71 -50.68 L 28.71 -50.18 M 28.21 -50.68 M 28.21 -50.68 A 0.5 0.5 0 0 1 28.71 -50.18 M 28.71 -50.18 M 28.71 -50.18 A 0.5 0.5 0 0 1 28.21 -49.68 M 28.21 -49.68 M 28.21 -49.68 A 0.5 0.5 0 0 1 27.71 -50.18 M 27.71 -50.18 M 27.71 -50.18 A 0.5 0.5 0 0 1 28.21 -50.68 M 27.96 -51.43 M 27.96 -51.43 A 0.75 0.75 0 0 1 28.71 -50.68 M 27.21 -50.68 M 27.21 -50.68 A 0.75 0.75 0 0 1 27.96 -51.43 M 28.71 -49.18 M 28.71 -49.18 A 0.75 0.75 0 0 1 27.96 -48.43 M 27.96 -48.43 M 27.96 -48.43 A 0.75 0.75 0 0 1 27.21 -49.18"
       id="path2509" />
  </g>
  <g
     transform="translate(0, -67.5)"
     id="g2512">
    <path
       style="fill:none;stroke:#0000FF;stroke-width:0.01"
       d="M 3 -0 l 0 -12.375 l -3 -0 l 0 -5 l 3 0 l 0 -12.375 l -3 -0 l 0 -5 l 3 0 l 0 -12.375 l -3 -0 l 0 -5 l 3 0 l 0 -12.375 l 7.73 -0 l 0 3 l 5 -0 l -0 -3 l 7.73 -0 l 0 3 l 5 -0 l -0 -3 l 7.73 -0 l 0 3 l 5 -0 l -0 -3 l 7.73 -0 l 0 12.375 l 3 -0 l 0 5 l -3 0 l 0 12.375 l 3 -0 l 0 5 l -3 0 l 0 12.375 l 3 -0 l 0 5 l -3 0 l 0 12.375 l -45.92 -0"
       id="path2510" />
    <g
       transform="translate(18.835, -49.5)"
       id="g2511">
      <circle
         style="fill:none;stroke:#0000FF;stroke-width:0.01"
         r="3.1"
         cx="3.0"
         cy="-5.5"
         id="circle2510" />
      <circle
         style="fill:none;stroke:#0000FF;stroke-width:0.01"
         r="3.1"
         cx="11.25"
         cy="-5.5"
         id="circle2511" />
    </g>
    <path
       style="fill:none;stroke:#FF0000;stroke-width:0.01"
       d="M 16.56 -48.3 L 17.16 -48.9 M 17.16 -48.9 L 17.76 -48.3 M 17.16 -48.9 L 17.16 -46.5 M 19.76 -48.3 L 19.76 -47.1 M 20.96 -48.3 L 20.96 -47.1 M 20.36 -48.9 M 20.36 -48.9 A 0.6 0.6 0 0 1 20.96 -48.3 M 19.76 -48.3 M 19.76 -48.3 A 0.6 0.6 0 0 1 20.36 -48.9 M 20.96 -47.1 M 20.96 -47.1 A 0.6 0.6 0 0 1 20.36 -46.5 M 20.36 -46.5 M 20.36 -46.5 A 0.6 0.6 0 0 1 19.76 -47.1 M 21.36 -47.7 L 21.36 -46.1 M 21.96 -47.7 M 21.96 -47.7 A 0.6 0.6 0 0 1 22.56 -47.1 M 22.56 -47.1 M 22.56 -47.1 A 0.6 0.6 0 0 1 21.96 -46.5 M 21.96 -46.5 M 21.96 -46.5 A 0.6 0.6 0 0 1 21.36 -47.1 M 21.36 -47.1 M 21.36 -47.1 A 0.6 0.6 0 0 1 21.96 -47.7 M 22.96 -47.1 L 24.16 -47.1 M 23.56 -46.5 L 24.16 -46.5 M 23.56 -47.7 M 23.56 -47.7 A 0.6 0.6 0 0 1 24.16 -47.1 M 23.56 -46.5 M 23.56 -46.5 A 0.6 0.6 0 0 1 22.96 -47.1 M 22.96 -47.1 M 22.96 -47.1 A 0.6 0.6 0 0 1 23.56 -47.7 M 24.56 -47.7 L 24.56 -46.5 M 25.76 -47.1 L 25.76 -46.5 M 25.16 -47.7 M 25.16 -47.7 A 0.6 0.6 0 0 1 25.76 -47.1 M 24.56 -47.1 M 24.56 -47.1 A 0.6 0.6 0 0 1 25.16 -47.7 M 27.76 -48.3 L 27.76 -47.1 M 28.96 -48.3 L 28.96 -47.9 M 28.56 -48.3 M 28.56 -48.3 A 0.4 0.4 0 0 1 28.96 -47.9 M 28.96 -47.9 M 28.96 -47.9 A 0.4 0.4 0 0 1 28.56 -47.5 M 28.56 -47.5 M 28.56 -47.5 A 0.4 0.4 0 0 1 28.16 -47.9 M 28.16 -47.9 M 28.16 -47.9 A 0.4 0.4 0 0 1 28.56 -48.3 M 28.36 -48.9 M 28.36 -48.9 A 0.6 0.6 0 0 1 28.96 -48.3 M 27.76 -48.3 M 27.76 -48.3 A 0.6 0.6 0 0 1 28.36 -48.9 M 28.96 -47.1 M 28.96 -47.1 A 0.6 0.6 0 0 1 28.36 -46.5 M 28.36 -46.5 M 28.36 -46.5 A 0.6 0.6 0 0 1 27.76 -47.1 M 30.96 -48.3 L 31.56 -48.9 M 31.56 -48.9 L 32.16 -48.3 M 31.56 -48.9 L 31.56 -46.5 M 33.16 -48.9 L 33.16 -48.5 M 34.76 -47.7 L 35.36 -47.7 M 34.16 -46.5 L 34.76 -46.5 M 34.16 -47.1 L 35.36 -47.1 M 35.36 -47.1 M 35.36 -47.1 A 0.6 0.6 0 0 1 34.76 -46.5 M 34.16 -47.1 M 34.16 -47.1 A 0.6 0.6 0 0 1 34.76 -47.7"
       id="path2511" />
  </g>
  <g
     transform="translate(128.35, -72.5)"
     id="g2514">
    <path
       style="fill:none;stroke:#0000FF;stroke-width:0.01"
       d="M 0 -0 h 45.92 v -60.3 h -45.92 z"
       id="path2512" />
    <g
       transform="translate(15.835, -48.3)"
       id="g2513">
      <circle
         style="fill:none;stroke:#0000FF;stroke-width:0.01"
         r="1.6"
         cx="3.0"
         cy="-5.5"
         id="circle2512" />
      <circle
         style="fill:none;stroke:#0000FF;stroke-width:0.01"
         r="1.6"
         cx="11.25"
         cy="-5.5"
         id="circle2513" />
      <path
         style="fill:none;stroke:#0000FF;stroke-width:0.01"
         d="M 0 -0 h 14.25 v -2.5 h -14.25 z"
         id="path2513" />
    </g>
  </g>
  <g
     transform="translate(128.35, -140)"
     id="g2518">
    <path
       style="fill:none;stroke:#0000FF;stroke-width:0.01"
       d="M 0 -0 h 45.92 v -60.3 h -45.92 z"
       id="path2514" />
    <path
       style="fill:none;stroke:#0000FF;stroke-width:0.01"
       d="M 30.71 -21.465 a 2 2 0 0 0 2 -2 v -15.5 a 2 2 0 0 0 -2 -2 h -15.5 a 2 2 0 0 0 -2 2 v 15.5 a 2 2 0 0 0 2 2 z"
       id="path2515" />
    <circle
       style="fill:none;stroke:#0000FF;stroke-width:0.01"
       r="1.0"
       cx="15.16"
       cy="-31.215"
       id="circle2515" />
    <circle
       style="fill:none;stroke:#0000FF;stroke-width:0.01"
       r="1.0"
       cx="30.759999999999998"
       cy="-31.215"
       id="circle2516" />
    <path
       style="fill:none;stroke:#0000FF;stroke-width:0.01"
       d="M 22.96 -23.415 a 1 1 0 0 0 1 -1 v -13.6 a 1 1 0 0 0 -1 -1 h -0 a 1 1 0 0 0 -1 1 v 13.6 a 1 1 0 0 0 1 1 z"
       id="path2516" />
    <path
       style="fill:none;stroke:#0000FF;stroke-width:0.01"
       d="M 19.06 -27.315 a 1 1 0 0 0 1 -1 v -5.8 a 1 1 0 0 0 -1 -1 h -0 a 1 1 0 0 0 -1 1 v 5.8 a 1 1 0 0 0 1 1 z"
       id="path2517" />
    <path
       style="fill:none;stroke:#0000FF;stroke-width:0.01"
       d="M 26.86 -27.315 a 1 1 0 0 0 1 -1 v -5.8 a 1 1 0 0 0 -1 -1 h -0 a 1 1 0 0 0 -1 1 v 5.8 a 1 1 0 0 0 1 1 z"
       id="path2518" />
  </g>
  <g
     transform="translate(0, -132)"
     id="g2529">
    <path
       style="fill:none;stroke:#0000FF;stroke-width:0.01"
       d="M 46.92 -6 a 2 2 0 0 0 2 -2 v -52.43 a 2 2 0 0 0 -2 -2 h -41.92 a 2 2 0 0 0 -2 2 v 52.43 a 2 2 0 0 0 2 2 z"
       id="path2519" />
    <g
       transform="translate(3, -3)"
       id="g2523">
      <g
         transform="translate(6.46, -3.75)"
         id="g2522">
        <circle
           style="fill:none;stroke:#0000FF;stroke-width:0.01"
           r="1.875"
           cx="2.5"
           cy="-2.5"
           id="circle2519" />
        <circle
           style="fill:none;stroke:#0000FF;stroke-width:0.01"
           r="1.875"
           cx="30.5"
           cy="-2.5"
           id="circle2520" />
        <circle
           style="fill:none;stroke:#0000FF;stroke-width:0.01"
           r="1.875"
           cx="2.5"
           cy="-45.5"
           id="circle2521" />
        <circle
           style="fill:none;stroke:#0000FF;stroke-width:0.01"
           r="1.875"
           cx="30.5"
           cy="-45.5"
           id="circle2522" />
      </g>
    </g>
    <g
       transform="translate(3, -3)"
       id="g2526">
      <circle
         style="fill:none;stroke:#0000FF;stroke-width:0.01"
         r="1.75"
         cx="3.81"
         cy="-8.89"
         id="circle2523" />
      <circle
         style="fill:none;stroke:#0000FF;stroke-width:0.01"
         r="1.75"
         cx="41.91"
         cy="-8.89"
         id="circle2524" />
      <circle
         style="fill:none;stroke:#0000FF;stroke-width:0.01"
         r="1.75"
         cx="3.81"
         cy="-53.339999999999996"
         id="circle2525" />
      <circle
         style="fill:none;stroke:#0000FF;stroke-width:0.01"
         r="1.75"
         cx="41.91"
         cy="-53.339999999999996"
         id="circle2526" />
    </g>
    <path
       style="fill:none;stroke:#0000FF;stroke-width:0.01"
       d="M 15.46 -37.43 h 21 v -25 m -21 -0 v 25"
       id="path2526" />
    <path
       style="fill:none;stroke:#FF0000;stroke-width:0.01"
       d="M 19.085 -56.43 L 21.585 -56.43 M 20.335 -56.43 L 20.335 -51.43 M 19.085 -51.43 M 20.335 -53.93 M 20.335 -53.93 M 20.335 -53.93 M 25.335 -56.43 L 22.835 -56.43 L 22.835 -51.43 L 25.335 -51.43 M 22.835 -51.43 M 24.085 -53.93 L 22.835 -53.93 M 22.835 -51.43 M 29.085 -56.43 L 26.585 -56.43 L 26.585 -53.93 L 29.085 -53.93 L 29.085 -51.43 L 26.585 -51.43 M 26.585 -51.43 M 27.835 -53.93 M 30.335 -56.43 L 32.835 -56.43 M 31.585 -56.43 L 31.585 -51.43 M 30.335 -51.43 M 31.585 -53.93 M 31.585 -53.93 M 31.585 -53.93"
       id="path2527" />
    <g
       transform="translate(3, -6)"
       id="g2528">
      <circle
         style="fill:none;stroke:#0000FF;stroke-width:0.01"
         r="1.55"
         cx="5.0"
         cy="-28.215"
         id="circle2527" />
      <circle
         style="fill:none;stroke:#0000FF;stroke-width:0.01"
         r="1.55"
         cx="40.92"
         cy="-28.215"
         id="circle2528" />
    </g>
    <path
       style="fill:none;stroke:#0000FF;stroke-width:0.01"
       d="M 16.96 -6 m 18 -0 v -8 h -18 v 8"
       id="path2528" />
  </g>
  <g
     transform="translate(51.92, -132.93)"
     id="g2534">
    <path
       style="fill:none;stroke:#0000FF;stroke-width:0.01"
       d="M 20.96 -57.43 h 10 v -5 m -10 -0 v 5"
       id="path2529" />
    <g
       transform="translate(3, -6)"
       id="g2530">
      <circle
         style="fill:none;stroke:#0000FF;stroke-width:0.01"
         r="1.55"
         cx="5.0"
         cy="-28.215"
         id="circle2529" />
      <circle
         style="fill:none;stroke:#0000FF;stroke-width:0.01"
         r="1.55"
         cx="40.92"
         cy="-28.215"
         id="circle2530" />
    </g>
    <g
       transform="translate(3, -6)"
       id="g2533">
      <path
         style="fill:none;stroke:#0000FF;stroke-width:0.01"
         d="M 43.92 -0 a 2 2 0 0 0 2 -2 v -52.43 a 2 2 0 0 0 -2 -2 h -41.92 a 2 2 0 0 0 -2 2 v 52.43 a 2 2 0 0 0 2 2 z"
         id="path2530" />
      <path
         style="fill:none;stroke:#0000FF;stroke-width:0.01"
         d="M 13.335 -0 m 19.25 -0 v -10 h -19.25 v 10"
         id="path2531" />
      <g
         transform="translate(10.26, -15.515)"
         id="g2532">
        <circle
           style="fill:none;stroke:#0000FF;stroke-width:0.01"
           r="1.55"
           cx="8.89"
           cy="-11.43"
           id="circle2531" />
        <circle
           style="fill:none;stroke:#0000FF;stroke-width:0.01"
           r="1.55"
           cx="16.51"
           cy="-11.43"
           id="circle2532" />
        <path
           style="fill:none;stroke:#0000FF;stroke-width:0.01"
           d="M 6.89 -4.35 h 12 v -4 h -12 z"
           id="path2532" />
      </g>
    </g>
  </g>
  <g
     id="g2535" />
</g>
</g>
</svg>
